<?xml version="1.0" encoding="utf-8"?>
<!-- Generator: Adobe Illustrator 18.0.0, SVG Export Plug-In . SVG Version: 6.00 Build 0)  -->
<!DOCTYPE svg PUBLIC "-//W3C//DTD SVG 1.1//EN" "http://www.w3.org/Graphics/SVG/1.1/DTD/svg11.dtd">
<svg version="1.1" id="Layer_1" xmlns="http://www.w3.org/2000/svg" xmlns:xlink="http://www.w3.org/1999/xlink" x="0px" y="0px"
	 viewBox="0 0 49.9 43.9" enable-background="new 0 0 49.9 43.9" xml:space="preserve">
<g>
	<path fill="none" d="M3.8,37.9c0,0-0.1,0-0.1,0C3.7,38,3.8,38,3.8,37.9z"/>
	<path fill="none" d="M4.1,37.9c0,0-0.1,0-0.1,0.1C4,37.9,4,37.9,4.1,37.9z"/>
	<path fill="none" d="M5.7,37.1C6,36.9,6.4,36.7,7,36.4L5.7,37.1z"/>
	<path fill="none" d="M48.5,35.4c0-1.7,0-19.3,0-19.3s0.4-3.1-3.4-5.4C41,8.2,28.4,1.2,28.4,1.2S27,0.5,25.5,1.5
		c0.2-0.1,0.8-0.1,2.7,1c3.9,2.2,15.3,8.9,15.3,8.9s3.6,2,3.6,6c0,4.9,0,19.6,0,19.6s0,0.5-0.5,1c0.3,0,0.6,0,0.9-0.1
		C47.4,37.9,48.5,37.1,48.5,35.4z"/>
	<path fill="#2EA1A2" d="M1.2,36.2V12.5L0,11.7v23.7c0,1.8,1.2,2.2,2.4,2.6C1.1,37.3,1.2,36.2,1.2,36.2z"/>
	<path fill="#2EA1A2" d="M3.8,37.9c0,0,0.1,0,0.1,0c0.1,0,0.1,0,0.1-0.1c0,0,0.1,0,0.1,0V14.3l-1.5-0.8v23.1c0,0,0.2,1.5,0.6,1.5
		c0.1,0,0.2,0,0.4-0.1C3.7,38,3.8,37.9,3.8,37.9z"/>
	<polygon fill="#2EA1A2" points="7,36.4 7,16 5.7,15.2 5.7,37.1 7,36.4 	"/>
	<path fill="#2EA1A2" d="M9.8,17.8L8.6,17v18.5L9.5,35c0.1-0.1,0.3-0.1,0.4-0.2V17.8z"/>
	<linearGradient id="SVGID_1_" gradientUnits="userSpaceOnUse" x1="2.4088" y1="33.0241" x2="47.4012" y2="33.0241">
		<stop  offset="0.2" style="stop-color:#008485"/>
		<stop  offset="0.5074" style="stop-color:#ED622C"/>
		<stop  offset="0.8" style="stop-color:#008485"/>
	</linearGradient>
	<path fill="url(#SVGID_1_)" d="M46.5,37.9C46.5,37.9,46.5,37.9,46.5,37.9c-0.4,0-1.1-0.1-1.1-0.2c0,0,0,0,0,0
		c-0.6-0.2-1.1-0.4-1.1-0.4S31.8,29.9,28.3,28c-3.5-1.9-6.7,0-6.7,0s-6.9,4-11.7,6.7l0,0L9.5,35c-0.9,0.5-1.8,1-2.5,1.4l0,0l0,0
		c-0.6,0.3-1,0.6-1.3,0.7c-0.6,0.3-1.1,0.6-1.5,0.7v0c0,0,0,0-0.1,0c-0.1,0-0.1,0-0.1,0.1c0,0-0.1,0-0.1,0c0,0-0.1,0-0.1,0
		c-0.1,0-0.3,0.1-0.4,0.1c0,0,0,0,0,0c-0.6,0.1-0.8,0-0.9-0.1c2,1.5,3.5,0.6,3.5,0.6s12.3-7,15.5-8.8c3.4-1.9,4.9-0.9,6.4-0.3
		c1.5,0.7,9.3,5.1,14.9,8.6c3,1.9,4.7-0.2,4.7-0.2C47.1,37.9,46.8,37.9,46.5,37.9z"/>
	<linearGradient id="SVGID_2_" gradientUnits="userSpaceOnUse" x1="2.3739" y1="37.9965" x2="47.4007" y2="37.9965">
		<stop  offset="0.2" style="stop-color:#008485"/>
		<stop  offset="0.5074" style="stop-color:#ED622C"/>
		<stop  offset="0.8" style="stop-color:#008485"/>
	</linearGradient>
	<path fill="url(#SVGID_2_)" d="M2.4,38C2.4,38,2.4,38,2.4,38C2.4,38,2.4,38,2.4,38z"/>
	<path fill="#2EA1A2" d="M3.9,37.9c0,0-0.1,0-0.1,0C3.9,37.9,3.9,37.9,3.9,37.9z"/>
	<linearGradient id="SVGID_3_" gradientUnits="userSpaceOnUse" x1="2.3739" y1="37.9189" x2="47.4004" y2="37.9189">
		<stop  offset="0.2" style="stop-color:#008485"/>
		<stop  offset="0.5074" style="stop-color:#ED622C"/>
		<stop  offset="0.8" style="stop-color:#008485"/>
	</linearGradient>
	<path fill="url(#SVGID_3_)" d="M3.9,37.9c0,0-0.1,0-0.1,0C3.9,37.9,3.9,37.9,3.9,37.9z"/>
	<path fill="#2EA1A2" d="M4.2,37.8L4.2,37.8C4.1,37.8,4.1,37.8,4.2,37.8C4.1,37.8,4.2,37.8,4.2,37.8z"/>
	<linearGradient id="SVGID_4_" gradientUnits="userSpaceOnUse" x1="2.374" y1="37.8332" x2="47.3964" y2="37.8332">
		<stop  offset="0.2" style="stop-color:#008485"/>
		<stop  offset="0.5074" style="stop-color:#ED622C"/>
		<stop  offset="0.8" style="stop-color:#008485"/>
	</linearGradient>
	<path fill="url(#SVGID_4_)" d="M4.2,37.8L4.2,37.8C4.1,37.8,4.1,37.8,4.2,37.8C4.1,37.8,4.2,37.8,4.2,37.8z"/>
	<path fill="#2EA1A2" d="M3.7,38c-0.1,0-0.3,0.1-0.4,0.1c0,0,0,0,0,0C3.4,38,3.6,38,3.7,38z"/>
	<linearGradient id="SVGID_5_" gradientUnits="userSpaceOnUse" x1="2.374" y1="38.0187" x2="47.3977" y2="38.0187">
		<stop  offset="0.2" style="stop-color:#008485"/>
		<stop  offset="0.5074" style="stop-color:#ED622C"/>
		<stop  offset="0.8" style="stop-color:#008485"/>
	</linearGradient>
	<path fill="url(#SVGID_5_)" d="M3.7,38c-0.1,0-0.3,0.1-0.4,0.1c0,0,0,0,0,0C3.4,38,3.6,38,3.7,38z"/>
	<polygon fill="#2EA1A2" points="7,36.4 7,36.4 7,36.4 	"/>
	<linearGradient id="SVGID_6_" gradientUnits="userSpaceOnUse" x1="2.3754" y1="36.3583" x2="47.3878" y2="36.3583">
		<stop  offset="0.2" style="stop-color:#008485"/>
		<stop  offset="0.5074" style="stop-color:#ED622C"/>
		<stop  offset="0.8" style="stop-color:#008485"/>
	</linearGradient>
	<polygon fill="url(#SVGID_6_)" points="7,36.4 7,36.4 7,36.4 	"/>
	<path fill="#2EA1A2" d="M9.8,34.7c-0.1,0.1-0.3,0.2-0.4,0.2L9.8,34.7L9.8,34.7z"/>
	<linearGradient id="SVGID_7_" gradientUnits="userSpaceOnUse" x1="2.3738" y1="34.8395" x2="47.4018" y2="34.8395">
		<stop  offset="0.2" style="stop-color:#008485"/>
		<stop  offset="0.5074" style="stop-color:#ED622C"/>
		<stop  offset="0.8" style="stop-color:#008485"/>
	</linearGradient>
	<path fill="url(#SVGID_7_)" d="M9.8,34.7c-0.1,0.1-0.3,0.2-0.4,0.2L9.8,34.7L9.8,34.7z"/>
	<linearGradient id="SVGID_8_" gradientUnits="userSpaceOnUse" x1="4.9151" y1="35.4511" x2="44.8599" y2="35.4511">
		<stop  offset="0.2" style="stop-color:#008485"/>
		<stop  offset="0.5074" style="stop-color:#ED622C"/>
		<stop  offset="0.8" style="stop-color:#008485"/>
	</linearGradient>
	<path fill="url(#SVGID_8_)" d="M41.8,39c0,0-10-5.9-13.6-7.8c-3.7-2-6.7,0-6.7,0s-10.4,6.2-13.1,7.5c-2.3,1.2-3.5,0.5-3.5,0.5
		c1.5,1.9,4,0.9,4,0.9s9.4-5.3,12.5-7.2c3.1-1.9,6.4-0.3,6.4-0.3s8.7,4.9,11.8,6.8c3.9,2.3,5.3-0.2,5.3-0.2
		C43.4,39.9,41.8,39,41.8,39z"/>
	<linearGradient id="SVGID_9_" gradientUnits="userSpaceOnUse" x1="7.9187" y1="37.8733" x2="41.6834" y2="37.8733">
		<stop  offset="0.2" style="stop-color:#008485"/>
		<stop  offset="0.5074" style="stop-color:#ED622C"/>
		<stop  offset="0.8" style="stop-color:#008485"/>
	</linearGradient>
	<path fill="url(#SVGID_9_)" d="M37.6,40.1c0,0-6.2-3.5-9.7-5.6c-3.1-1.8-6-0.2-6-0.2s-7.3,4.4-10,5.7c-2.3,1.2-4,1.1-4,1.1
		c1.9,2,4.9,0.2,4.9,0.2s5.8-3.3,9-5.2c3.4-2.1,6-0.1,6-0.1s4,2.5,7.7,4.7c4.5,2.8,6.2,0.5,6.2,0.5C40,41.6,37.6,40.1,37.6,40.1z"/>
	<linearGradient id="SVGID_10_" gradientUnits="userSpaceOnUse" x1="10.7526" y1="40.3476" x2="38.8695" y2="40.3476">
		<stop  offset="0.2" style="stop-color:#008485"/>
		<stop  offset="0.5074" style="stop-color:#ED622C"/>
		<stop  offset="0.8" style="stop-color:#008485"/>
	</linearGradient>
	<path fill="url(#SVGID_10_)" d="M35.4,42.2c0,0-4.6-2.7-8.1-4.7c-2.4-1.4-4.4-0.2-4.4-0.2s-5.9,3.5-8.6,4.9
		c-2.3,1.2-3.5,0.7-3.5,0.7c1.9,2,4.1,0.7,4.1,0.7s5-2.9,8.2-4.7c2-1.1,3.8,0.1,3.8,0.1s3.6,2.1,7.3,4.3c2.9,1.7,4.7-0.5,4.7-0.5
		C37.1,43.3,35.4,42.2,35.4,42.2z"/>
	<linearGradient id="SVGID_11_" gradientUnits="userSpaceOnUse" x1="25.3699" y1="18.9313" x2="50" y2="18.9313">
		<stop  offset="0" style="stop-color:#2EA1A2"/>
		<stop  offset="1" style="stop-color:#005A5B"/>
	</linearGradient>
	<path fill="url(#SVGID_11_)" d="M46.4,9.8c0,0-11.4-6.7-15.3-8.9c-4.2-2.4-5.8,0.6-5.8,0.6s0,0,0.1-0.1c1.6-1,2.9-0.3,2.9-0.3
		S41,8.2,45.1,10.7c3.7,2.3,3.4,5.4,3.4,5.4s0,17.5,0,19.3s-1.1,2.5-1.1,2.5c2.5-1,2.4-2.7,2.4-2.7S50,20.8,50,15.8
		C50,11.8,46.4,9.8,46.4,9.8z"/>
	<linearGradient id="SVGID_12_" gradientUnits="userSpaceOnUse" x1="25.0081" y1="19.6891" x2="46.9852" y2="19.6891">
		<stop  offset="0" style="stop-color:#2EA1A2"/>
		<stop  offset="1" style="stop-color:#005A5B"/>
	</linearGradient>
	<path fill="url(#SVGID_12_)" d="M47,36.9c0,0,0-14.7,0-19.6c0-4.1-3.6-6-3.6-6S32.1,4.6,28.2,2.4c-1.8-1-2.5-1-2.7-1
		c0,0-0.1,0-0.1,0.1c-0.1,0.2-0.2,0.4-0.4,1c0.9,0.5,1.6,0.9,1.6,0.9S38,9.7,42.1,12.3c3.7,2.3,3.4,5.4,3.4,5.4s-0.2,17.6,0,19.3
		c0,0.4-0.1,0.8-0.1,0.9c0.3,0.1,0.7,0.2,1.1,0.2C47,37.4,47,36.9,47,36.9z"/>
	<linearGradient id="SVGID_13_" gradientUnits="userSpaceOnUse" x1="2.3729" y1="37.8563" x2="47.4011" y2="37.8563">
		<stop  offset="0.2" style="stop-color:#008485"/>
		<stop  offset="0.5074" style="stop-color:#ED622C"/>
		<stop  offset="0.8" style="stop-color:#008485"/>
	</linearGradient>
	<path fill="url(#SVGID_13_)" d="M46.5,37.9C46.5,37.9,46.5,37.9,46.5,37.9c-0.4,0-0.8-0.1-1.1-0.2c0,0,0,0,0,0
		C45.4,37.8,46.1,37.9,46.5,37.9z"/>
	<linearGradient id="SVGID_14_" gradientUnits="userSpaceOnUse" x1="25.0076" y1="37.8563" x2="46.9852" y2="37.8563">
		<stop  offset="0" style="stop-color:#2EA1A2"/>
		<stop  offset="1" style="stop-color:#005A5B"/>
	</linearGradient>
	<path fill="url(#SVGID_14_)" d="M46.5,37.9C46.5,37.9,46.5,37.9,46.5,37.9c-0.4,0-0.8-0.1-1.1-0.2c0,0,0,0,0,0
		C45.4,37.8,46.1,37.9,46.5,37.9z"/>
	<linearGradient id="SVGID_15_" gradientUnits="userSpaceOnUse" x1="25.3699" y1="1.4915" x2="49.9918" y2="1.4915">
		<stop  offset="0" style="stop-color:#2EA1A2"/>
		<stop  offset="1" style="stop-color:#005A5B"/>
	</linearGradient>
	<path fill="url(#SVGID_15_)" d="M25.4,1.5C25.4,1.5,25.4,1.5,25.4,1.5C25.4,1.5,25.4,1.5,25.4,1.5z"/>
	<linearGradient id="SVGID_16_" gradientUnits="userSpaceOnUse" x1="25.0082" y1="1.4915" x2="46.978" y2="1.4915">
		<stop  offset="0" style="stop-color:#2EA1A2"/>
		<stop  offset="1" style="stop-color:#005A5B"/>
	</linearGradient>
	<path fill="url(#SVGID_16_)" d="M25.4,1.5C25.4,1.5,25.4,1.5,25.4,1.5C25.4,1.5,25.4,1.5,25.4,1.5z"/>
	<linearGradient id="SVGID_17_" gradientUnits="userSpaceOnUse" x1="24.8799" y1="20.6711" x2="44.0508" y2="20.6711">
		<stop  offset="0" style="stop-color:#2EA1A2"/>
		<stop  offset="1" style="stop-color:#005A5B"/>
	</linearGradient>
	<path fill="url(#SVGID_17_)" d="M26.4,6.5c0,0,8.7,4.9,12.8,7.4c3.7,2.3,3.4,5.4,3.4,5.4s-0.1,15.1-0.1,17.1
		c0.7,0.4,1.5,0.9,1.5,0.9s0-13.3,0-18.3c0-4.1-3.6-6-3.6-6s-8.9-5.3-12.8-7.5c-2.5-1.4-2.8-1.4-2.8-1.4c0,0.8,0,0.8,0,1.5
		C25.5,5.9,26.4,6.5,26.4,6.5z"/>
	<linearGradient id="SVGID_18_" gradientUnits="userSpaceOnUse" x1="24.8799" y1="21.4137" x2="41.237" y2="21.4137">
		<stop  offset="0" style="stop-color:#2EA1A2"/>
		<stop  offset="1" style="stop-color:#005A5B"/>
	</linearGradient>
	<path fill="url(#SVGID_18_)" d="M39.7,21.1c0,0,0.1,11.8,0,13.5c0.7,0.4,1.5,0.9,1.5,0.9s0-9.8,0-14.7c0-4.1-3.6-6-3.6-6
		s-8.9-5.3-12.8-7.5c0,0.8,0,1.8,0,1.8s7.4,4.1,11.5,6.6C40.1,18,39.7,21.1,39.7,21.1z"/>
</g>
</svg>
