<?xml version="1.0" encoding="utf-8"?>
<!-- Generator: Adobe Illustrator 18.0.0, SVG Export Plug-In . SVG Version: 6.00 Build 0)  -->
<!DOCTYPE svg PUBLIC "-//W3C//DTD SVG 1.1//EN" "http://www.w3.org/Graphics/SVG/1.1/DTD/svg11.dtd">
<svg version="1.1" id="Layer_1" xmlns="http://www.w3.org/2000/svg" xmlns:xlink="http://www.w3.org/1999/xlink" x="0px" y="0px"
	 viewBox="0 0 58.3 58.3" enable-background="new 0 0 58.3 58.3" xml:space="preserve">
<circle fill="#FFFFFF" cx="29.1" cy="29.1" r="29.1"/>
<g>
	<path fill="none" d="M8.6,43.6c0,0-0.1,0-0.1,0C8.5,43.6,8.6,43.6,8.6,43.6z"/>
	<path fill="none" d="M8.9,43.5c0,0-0.1,0-0.1,0.1C8.8,43.5,8.8,43.5,8.9,43.5z"/>
	<path fill="none" d="M10.5,42.7c0.3-0.2,0.8-0.4,1.3-0.7L10.5,42.7z"/>
	<path fill="none" d="M53.3,41c0-1.7,0-19.3,0-19.3s0.4-3.1-3.4-5.4c-4.1-2.5-16.8-9.6-16.8-9.6s-1.4-0.7-2.9,0.3
		c0.2-0.1,0.8-0.1,2.7,1c3.9,2.2,15.3,8.9,15.3,8.9s3.6,2,3.6,6c0,4.9,0,19.6,0,19.6s0,0.5-0.5,1c0.3,0,0.6,0,0.9-0.1
		C52.2,43.5,53.3,42.7,53.3,41z"/>
	<path fill="#2EA1A2" d="M6,41.9V18.1l-1.2-0.8V41c0,1.8,1.2,2.2,2.4,2.6C5.9,42.9,6,41.9,6,41.9z"/>
	<path fill="#2EA1A2" d="M8.6,43.6c0,0,0.1,0,0.1,0c0.1,0,0.1,0,0.1-0.1c0,0,0.1,0,0.1,0V19.9l-1.5-0.8v23.1c0,0,0.2,1.5,0.6,1.5
		c0.1,0,0.2,0,0.4-0.1C8.5,43.6,8.6,43.6,8.6,43.6z"/>
	<polygon fill="#2EA1A2" points="11.8,42 11.8,21.6 10.5,20.8 10.5,42.7 11.8,42 	"/>
	<path fill="#2EA1A2" d="M14.6,23.4l-1.3-0.8v18.5l0.9-0.5c0.1-0.1,0.3-0.1,0.4-0.2V23.4z"/>
	<linearGradient id="SVGID_1_" gradientUnits="userSpaceOnUse" x1="7.1946" y1="38.652" x2="52.187" y2="38.652">
		<stop  offset="0.2" style="stop-color:#008485"/>
		<stop  offset="0.5074" style="stop-color:#ED622C"/>
		<stop  offset="0.8" style="stop-color:#008485"/>
	</linearGradient>
	<path fill="url(#SVGID_1_)" d="M51.3,43.6C51.3,43.6,51.3,43.6,51.3,43.6c-0.4,0-1.1-0.1-1.1-0.2c0,0,0,0,0,0
		c-0.6-0.2-1.1-0.4-1.1-0.4S36.6,35.5,33,33.6c-3.5-1.9-6.7,0-6.7,0s-6.9,4-11.7,6.7l0,0l-0.4,0.2c-0.9,0.5-1.8,1-2.5,1.4l0,0l0,0
		c-0.6,0.3-1,0.6-1.3,0.7c-0.6,0.3-1.1,0.6-1.5,0.7v0c0,0,0,0-0.1,0c-0.1,0-0.1,0-0.1,0.1c0,0-0.1,0-0.1,0c0,0-0.1,0-0.1,0
		c-0.1,0-0.3,0.1-0.4,0.1c0,0,0,0,0,0c-0.6,0.1-0.8,0-0.9-0.1c2,1.5,3.5,0.6,3.5,0.6s12.3-7,15.5-8.8c3.4-1.9,4.9-0.9,6.4-0.3
		c1.5,0.7,9.3,5.1,14.9,8.6c3,1.9,4.7-0.2,4.7-0.2C51.9,43.6,51.6,43.6,51.3,43.6z"/>
	<linearGradient id="SVGID_2_" gradientUnits="userSpaceOnUse" x1="7.1597" y1="43.6244" x2="52.1865" y2="43.6244">
		<stop  offset="0.2" style="stop-color:#008485"/>
		<stop  offset="0.5074" style="stop-color:#ED622C"/>
		<stop  offset="0.8" style="stop-color:#008485"/>
	</linearGradient>
	<path fill="url(#SVGID_2_)" d="M7.2,43.6C7.2,43.6,7.2,43.6,7.2,43.6C7.2,43.6,7.2,43.6,7.2,43.6z"/>
	<path fill="#2EA1A2" d="M8.7,43.5c0,0-0.1,0-0.1,0C8.7,43.6,8.7,43.5,8.7,43.5z"/>
	<linearGradient id="SVGID_3_" gradientUnits="userSpaceOnUse" x1="7.1597" y1="43.5468" x2="52.1862" y2="43.5468">
		<stop  offset="0.2" style="stop-color:#008485"/>
		<stop  offset="0.5074" style="stop-color:#ED622C"/>
		<stop  offset="0.8" style="stop-color:#008485"/>
	</linearGradient>
	<path fill="url(#SVGID_3_)" d="M8.7,43.5c0,0-0.1,0-0.1,0C8.7,43.6,8.7,43.5,8.7,43.5z"/>
	<path fill="#2EA1A2" d="M9,43.4L9,43.4C8.9,43.5,8.9,43.5,9,43.4C8.9,43.5,9,43.4,9,43.4z"/>
	<linearGradient id="SVGID_4_" gradientUnits="userSpaceOnUse" x1="7.1598" y1="43.461" x2="52.1822" y2="43.461">
		<stop  offset="0.2" style="stop-color:#008485"/>
		<stop  offset="0.5074" style="stop-color:#ED622C"/>
		<stop  offset="0.8" style="stop-color:#008485"/>
	</linearGradient>
	<path fill="url(#SVGID_4_)" d="M9,43.4L9,43.4C8.9,43.5,8.9,43.5,9,43.4C8.9,43.5,9,43.4,9,43.4z"/>
	<path fill="#2EA1A2" d="M8.5,43.6c-0.1,0-0.3,0.1-0.4,0.1c0,0,0,0,0,0C8.2,43.7,8.4,43.6,8.5,43.6z"/>
	<linearGradient id="SVGID_5_" gradientUnits="userSpaceOnUse" x1="7.1598" y1="43.6466" x2="52.1835" y2="43.6466">
		<stop  offset="0.2" style="stop-color:#008485"/>
		<stop  offset="0.5074" style="stop-color:#ED622C"/>
		<stop  offset="0.8" style="stop-color:#008485"/>
	</linearGradient>
	<path fill="url(#SVGID_5_)" d="M8.5,43.6c-0.1,0-0.3,0.1-0.4,0.1c0,0,0,0,0,0C8.2,43.7,8.4,43.6,8.5,43.6z"/>
	<polygon fill="#2EA1A2" points="11.8,42 11.8,42 11.8,42 	"/>
	<linearGradient id="SVGID_6_" gradientUnits="userSpaceOnUse" x1="7.1612" y1="41.9861" x2="52.1736" y2="41.9861">
		<stop  offset="0.2" style="stop-color:#008485"/>
		<stop  offset="0.5074" style="stop-color:#ED622C"/>
		<stop  offset="0.8" style="stop-color:#008485"/>
	</linearGradient>
	<polygon fill="url(#SVGID_6_)" points="11.8,42 11.8,42 11.8,42 	"/>
	<path fill="#2EA1A2" d="M14.6,40.4c-0.1,0.1-0.3,0.2-0.4,0.2L14.6,40.4L14.6,40.4z"/>
	<linearGradient id="SVGID_7_" gradientUnits="userSpaceOnUse" x1="7.1595" y1="40.4674" x2="52.1876" y2="40.4674">
		<stop  offset="0.2" style="stop-color:#008485"/>
		<stop  offset="0.5074" style="stop-color:#ED622C"/>
		<stop  offset="0.8" style="stop-color:#008485"/>
	</linearGradient>
	<path fill="url(#SVGID_7_)" d="M14.6,40.4c-0.1,0.1-0.3,0.2-0.4,0.2L14.6,40.4L14.6,40.4z"/>
	<linearGradient id="SVGID_8_" gradientUnits="userSpaceOnUse" x1="9.7009" y1="41.079" x2="49.6457" y2="41.079">
		<stop  offset="0.2" style="stop-color:#008485"/>
		<stop  offset="0.5074" style="stop-color:#ED622C"/>
		<stop  offset="0.8" style="stop-color:#008485"/>
	</linearGradient>
	<path fill="url(#SVGID_8_)" d="M46.6,44.7c0,0-10-5.9-13.6-7.8c-3.7-2-6.7,0-6.7,0s-10.4,6.2-13.1,7.5c-2.3,1.2-3.5,0.5-3.5,0.5
		c1.5,1.9,4,0.9,4,0.9s9.4-5.3,12.5-7.2c3.1-1.9,6.4-0.3,6.4-0.3s8.7,4.9,11.8,6.8c3.9,2.3,5.3-0.2,5.3-0.2
		C48.2,45.5,46.6,44.7,46.6,44.7z"/>
	<linearGradient id="SVGID_9_" gradientUnits="userSpaceOnUse" x1="12.7045" y1="43.5011" x2="46.4692" y2="43.5011">
		<stop  offset="0.2" style="stop-color:#008485"/>
		<stop  offset="0.5074" style="stop-color:#ED622C"/>
		<stop  offset="0.8" style="stop-color:#008485"/>
	</linearGradient>
	<path fill="url(#SVGID_9_)" d="M42.4,45.7c0,0-6.2-3.5-9.7-5.6c-3.1-1.8-6-0.2-6-0.2s-7.3,4.4-10,5.7c-2.3,1.2-4,1.1-4,1.1
		c1.9,2,4.9,0.2,4.9,0.2s5.8-3.3,9-5.2c3.4-2.1,6-0.1,6-0.1s4,2.5,7.7,4.7c4.5,2.8,6.2,0.5,6.2,0.5C44.8,47.2,42.4,45.7,42.4,45.7z"
		/>
	<linearGradient id="SVGID_10_" gradientUnits="userSpaceOnUse" x1="15.5384" y1="45.9755" x2="43.6553" y2="45.9755">
		<stop  offset="0.2" style="stop-color:#008485"/>
		<stop  offset="0.5074" style="stop-color:#ED622C"/>
		<stop  offset="0.8" style="stop-color:#008485"/>
	</linearGradient>
	<path fill="url(#SVGID_10_)" d="M40.2,47.8c0,0-4.6-2.7-8.1-4.7c-2.4-1.4-4.4-0.2-4.4-0.2s-5.9,3.5-8.6,4.9
		c-2.3,1.2-3.5,0.7-3.5,0.7c1.9,2,4.1,0.7,4.1,0.7s5-2.9,8.2-4.7c2-1.1,3.8,0.1,3.8,0.1s3.6,2.1,7.3,4.3c2.9,1.7,4.7-0.5,4.7-0.5
		C41.9,48.9,40.2,47.8,40.2,47.8z"/>
	<linearGradient id="SVGID_11_" gradientUnits="userSpaceOnUse" x1="30.1557" y1="24.5592" x2="54.7858" y2="24.5592">
		<stop  offset="0" style="stop-color:#2EA1A2"/>
		<stop  offset="1" style="stop-color:#005A5B"/>
	</linearGradient>
	<path fill="url(#SVGID_11_)" d="M51.2,15.4c0,0-11.4-6.7-15.3-8.9c-4.2-2.4-5.8,0.6-5.8,0.6s0,0,0.1-0.1c1.6-1,2.9-0.3,2.9-0.3
		s12.6,7.1,16.8,9.6c3.7,2.3,3.4,5.4,3.4,5.4s0,17.5,0,19.3c0,1.7-1.1,2.5-1.1,2.5c2.5-1,2.4-2.7,2.4-2.7s0.2-14.5,0.2-19.4
		C54.8,17.4,51.2,15.4,51.2,15.4z"/>
	<linearGradient id="SVGID_12_" gradientUnits="userSpaceOnUse" x1="29.7939" y1="25.317" x2="51.771" y2="25.317">
		<stop  offset="0" style="stop-color:#2EA1A2"/>
		<stop  offset="1" style="stop-color:#005A5B"/>
	</linearGradient>
	<path fill="url(#SVGID_12_)" d="M51.8,42.5c0,0,0-14.7,0-19.6c0-4.1-3.6-6-3.6-6s-11.4-6.7-15.3-8.9c-1.8-1-2.5-1-2.7-1
		c0,0-0.1,0-0.1,0.1c-0.1,0.2-0.2,0.4-0.4,1C30.6,8.6,31.4,9,31.4,9s11.3,6.3,15.5,8.9c3.7,2.3,3.4,5.4,3.4,5.4s-0.2,17.6,0,19.3
		c0,0.4-0.1,0.8-0.1,0.9c0.3,0.1,0.7,0.2,1.1,0.2C51.8,43,51.8,42.5,51.8,42.5z"/>
	<linearGradient id="SVGID_13_" gradientUnits="userSpaceOnUse" x1="7.1587" y1="43.4842" x2="52.1869" y2="43.4842">
		<stop  offset="0.2" style="stop-color:#008485"/>
		<stop  offset="0.5074" style="stop-color:#ED622C"/>
		<stop  offset="0.8" style="stop-color:#008485"/>
	</linearGradient>
	<path fill="url(#SVGID_13_)" d="M51.3,43.6C51.3,43.6,51.3,43.6,51.3,43.6c-0.4,0-0.8-0.1-1.1-0.2c0,0,0,0,0,0
		C50.2,43.4,50.9,43.6,51.3,43.6z"/>
	<linearGradient id="SVGID_14_" gradientUnits="userSpaceOnUse" x1="29.7934" y1="43.4842" x2="51.771" y2="43.4842">
		<stop  offset="0" style="stop-color:#2EA1A2"/>
		<stop  offset="1" style="stop-color:#005A5B"/>
	</linearGradient>
	<path fill="url(#SVGID_14_)" d="M51.3,43.6C51.3,43.6,51.3,43.6,51.3,43.6c-0.4,0-0.8-0.1-1.1-0.2c0,0,0,0,0,0
		C50.2,43.4,50.9,43.6,51.3,43.6z"/>
	<linearGradient id="SVGID_15_" gradientUnits="userSpaceOnUse" x1="30.1557" y1="7.1194" x2="54.7776" y2="7.1194">
		<stop  offset="0" style="stop-color:#2EA1A2"/>
		<stop  offset="1" style="stop-color:#005A5B"/>
	</linearGradient>
	<path fill="url(#SVGID_15_)" d="M30.2,7.1C30.2,7.1,30.2,7.1,30.2,7.1C30.2,7.1,30.2,7.1,30.2,7.1z"/>
	<linearGradient id="SVGID_16_" gradientUnits="userSpaceOnUse" x1="29.794" y1="7.1194" x2="51.7638" y2="7.1194">
		<stop  offset="0" style="stop-color:#2EA1A2"/>
		<stop  offset="1" style="stop-color:#005A5B"/>
	</linearGradient>
	<path fill="url(#SVGID_16_)" d="M30.2,7.1C30.2,7.1,30.2,7.1,30.2,7.1C30.2,7.1,30.2,7.1,30.2,7.1z"/>
	<linearGradient id="SVGID_17_" gradientUnits="userSpaceOnUse" x1="29.6657" y1="26.299" x2="48.8365" y2="26.299">
		<stop  offset="0" style="stop-color:#2EA1A2"/>
		<stop  offset="1" style="stop-color:#005A5B"/>
	</linearGradient>
	<path fill="url(#SVGID_17_)" d="M31.1,12.1c0,0,8.7,4.9,12.8,7.4c3.7,2.3,3.4,5.4,3.4,5.4s-0.1,15.1-0.1,17.1
		c0.7,0.4,1.5,0.9,1.5,0.9s0-13.3,0-18.3c0-4.1-3.6-6-3.6-6s-8.9-5.3-12.8-7.5c-2.5-1.4-2.8-1.4-2.8-1.4c0,0.8,0,0.8,0,1.5
		C30.3,11.5,31.1,12.1,31.1,12.1z"/>
	<linearGradient id="SVGID_18_" gradientUnits="userSpaceOnUse" x1="29.6657" y1="27.0415" x2="46.0228" y2="27.0415">
		<stop  offset="0" style="stop-color:#2EA1A2"/>
		<stop  offset="1" style="stop-color:#005A5B"/>
	</linearGradient>
	<path fill="url(#SVGID_18_)" d="M44.5,26.7c0,0,0.1,11.8,0,13.5c0.7,0.4,1.5,0.9,1.5,0.9s0-9.8,0-14.7c0-4.1-3.6-6-3.6-6
		s-8.9-5.3-12.8-7.5c0,0.8,0,1.8,0,1.8s7.4,4.1,11.5,6.6C44.9,23.6,44.5,26.7,44.5,26.7z"/>
</g>
</svg>
