<?xml version="1.0" encoding="utf-8"?>
<!-- Generator: Adobe Illustrator 16.0.0, SVG Export Plug-In . SVG Version: 6.00 Build 0)  -->
<!DOCTYPE svg PUBLIC "-//W3C//DTD SVG 1.1//EN" "http://www.w3.org/Graphics/SVG/1.1/DTD/svg11.dtd">
<svg version="1.1" id="Layer_1" xmlns="http://www.w3.org/2000/svg" xmlns:xlink="http://www.w3.org/1999/xlink" x="0px" y="0px"
	 width="345.667px" height="96px" viewBox="0 0 345.667 96" enable-background="new 0 0 345.667 96" xml:space="preserve">
	 
<g>
	<path fill="#EC674B" d="M141.149,44.452l-9.749,25.824l-13.865-35.962h2.556l11.309,29.291l9.749-25.781l9.663,25.781
		l11.395-29.291h2.556l-13.951,35.962L141.149,44.452z"/>
	<path fill="#EC674B" d="M181.571,67.416c-1.863,1.776-4.332,2.859-7.322,2.859c-6.673,0-12.089-5.416-12.089-12.088
		c0-6.674,5.416-12.176,12.089-12.176c6.672,0,10.919,5.502,10.919,12.176c0,0.389,0,0.822-0.044,1.213H164.63
		c0.606,4.766,4.679,8.492,9.619,8.492c2.209,0,4.159-0.736,5.633-2.123L181.571,67.416z M182.741,57.018
		c-0.217-2.254-0.996-4.334-2.297-5.807c-1.56-1.82-3.683-2.816-6.195-2.816c-4.94,0-9.056,3.812-9.619,8.623H182.741z"/>
	<path fill="#EC674B" d="M191.144,49.564c1.993-2.296,4.853-3.726,8.319-3.726c6.758,0,12.262,5.458,12.262,12.218
		s-5.504,12.219-12.262,12.219c-3.467,0-6.326-1.43-8.319-3.77v2.47h-2.384V34.313h2.384V49.564z M191.144,61.609
		c0.434,1.344,1.083,2.514,1.95,3.467c1.603,1.82,3.812,2.816,6.369,2.816c5.459,0,9.834-4.42,9.834-9.836
		c0-5.459-4.375-9.836-9.834-9.836c-2.557,0-4.767,0.953-6.369,2.773c-0.867,0.953-1.517,2.166-1.95,3.467V61.609z"/>
	<path fill="#04ADAC" d="M248.85,64.815c-3.381,3.38-8.061,5.46-13.174,5.46c-10.311,0-18.629-8.363-18.629-18.631
		c0-10.27,8.318-18.632,18.629-18.632c5.113,0,9.793,2.08,13.174,5.459l-1.691,1.689c-2.945-2.946-7.02-4.766-11.482-4.766
		c-8.967,0-16.248,7.279-16.248,16.249c0,8.969,7.281,16.248,16.248,16.248c4.463,0,8.537-1.82,11.482-4.767L248.85,64.815z"/>
	<path fill="#04ADAC" d="M271.42,66.549c-1.951,2.297-4.811,3.727-8.277,3.727c-6.715,0-12.131-5.416-12.131-12.133
		c0-6.715,5.416-12.131,12.131-12.131c3.467,0,6.326,1.43,8.277,3.726v-2.426h2.383v21.664h-2.383V66.549z M271.42,54.59
		c-0.391-1.299-1.084-2.47-1.951-3.467c-1.604-1.818-3.77-2.729-6.326-2.729c-5.371,0-9.748,4.332-9.748,9.748
		c0,5.373,4.377,9.75,9.748,9.75c2.557,0,4.723-0.954,6.326-2.773c0.867-0.953,1.561-2.123,1.951-3.423V54.59z"/>
	<path fill="#04ADAC" d="M281.6,49.391c1.82-2.08,4.463-3.379,7.408-3.379c3.727,0,6.977,2.08,8.623,5.112
		c1.646-3.032,4.896-5.112,8.621-5.112c5.418,0,9.793,4.419,9.793,9.792v13.172h-2.383V55.803c0-4.072-3.336-7.408-7.41-7.408
		c-4.115,0-7.408,3.336-7.408,7.408v13.172h-2.426V55.803c0-4.072-3.293-7.408-7.41-7.408c-4.072,0-7.408,3.336-7.408,7.408v13.172
		h-2.383V47.311h2.383V49.391z"/>
	<path fill="#04ADAC" d="M322.67,49.824c1.994-2.34,4.939-3.813,8.449-3.813c6.758,0,12.045,5.33,12.045,12.088
		c0,6.76-5.459,12.176-12.176,12.176c-3.465,0-6.369-1.518-8.318-3.812v16.811h-2.426V47.311h2.426V49.824z M322.67,61.566
		c0.391,1.343,1.041,2.513,1.949,3.51c1.605,1.775,3.814,2.816,6.369,2.816c5.418,0,9.793-4.377,9.793-9.793
		s-4.246-9.705-9.662-9.705c-2.557,0-4.895,0.91-6.5,2.686c-0.908,0.997-1.559,2.167-1.949,3.51V61.566z"/>
</g>
<g>
	<path fill="none" d="M11.203,79.994c-0.083,0.025-0.167,0.051-0.254,0.076C11.03,80.048,11.117,80.021,11.203,79.994z"/>
	<path fill="none" d="M11.731,79.82c-0.081,0.027-0.186,0.062-0.3,0.101C11.53,79.889,11.627,79.857,11.731,79.82z"/>
	<path fill="none" d="M14.938,78.312c0.622-0.348,1.546-0.871,2.677-1.516L14.938,78.312z"/>
	<path fill="none" d="M101.788,74.763c0-3.462,0-39.029,0-39.029s0.712-6.274-6.825-10.857C86.556,19.763,61.007,5.463,61.007,5.463
		s-2.749-1.418-5.934,0.593c0.423-0.137,1.711-0.116,5.445,1.974c7.901,4.425,30.963,18.007,30.963,18.007s7.212,3.952,7.211,12.222
		c-0.001,9.961,0,39.661,0,39.661s0,0.936-0.954,2.08c0.598,0.02,1.208-0.02,1.797-0.157
		C99.535,79.843,101.788,78.226,101.788,74.763z"/>
	<path fill="#58C4C4" d="M5.975,76.521V28.449l-2.526-1.629v48.073c0,3.75,2.484,4.413,4.812,5.198
		C5.719,78.699,5.975,76.521,5.975,76.521z"/>
	<path fill="#58C4C4" d="M11.203,79.994c0.074-0.022,0.151-0.047,0.229-0.073c0.114-0.038,0.219-0.073,0.3-0.101
		c0.061-0.022,0.128-0.05,0.191-0.073V32.114l-3.015-1.711v46.852c0,0,0.471,3.069,1.269,2.993c0.232-0.04,0.487-0.097,0.772-0.177
		C11.036,80.045,11.12,80.02,11.203,79.994z"/>
	<polygon fill="#58C4C4" points="17.626,76.791 17.626,35.454 14.938,33.825 14.938,78.312 17.614,76.797 	"/>
	<path fill="#58C4C4" d="M23.412,39.202l-2.607-1.711v37.487l1.811-1.035c0.264-0.15,0.526-0.301,0.796-0.455V39.202z"/>
	<linearGradient id="SVGID_1_" gradientUnits="userSpaceOnUse" x1="8.3315" y1="70.0352" x2="99.5347" y2="70.0352">
		<stop  offset="0.2" style="stop-color:#04ADAC"/>
		<stop  offset="0.5074" style="stop-color:#EB674A"/>
		<stop  offset="0.8" style="stop-color:#04ADAC"/>
	</linearGradient>
	<path fill="url(#SVGID_1_)" d="M97.737,80c0,0.002-0.001,0.002-0.002,0.004c-0.778,0.002-2.165-0.255-2.304-0.345l0-0.001
		c-1.246-0.316-2.13-0.732-2.13-0.732S67.865,63.723,60.729,59.859c-7.135-3.861-13.566,0-13.566,0S33.21,67.883,23.412,73.488l0,0
		l-0.796,0.455c-1.894,1.083-3.602,2.059-4.989,2.848l0,0l-0.012,0.006c-1.131,0.645-2.055,1.168-2.677,1.516
		c-1.2,0.674-2.189,1.125-3.015,1.435v0.005c0,0-0.073,0.026-0.191,0.068c-0.104,0.037-0.202,0.068-0.3,0.101
		c-0.073,0.024-0.148,0.048-0.229,0.073c-0.085,0.026-0.172,0.054-0.254,0.076c-0.266,0.078-0.54,0.146-0.758,0.178
		c-0.005,0.001-0.009-0.002-0.014-0.001c-1.135,0.199-1.669-0.007-1.845-0.108c4.091,2.957,7.115,1.171,7.115,1.171
		s24.991-14.212,31.472-17.905c6.804-3.879,9.882-1.893,12.895-0.551s18.943,10.424,30.25,17.48
		c6.172,3.854,9.472-0.491,9.472-0.491C98.945,79.98,98.335,80.02,97.737,80z"/>
	<linearGradient id="SVGID_2_" gradientUnits="userSpaceOnUse" x1="8.2607" y1="80.1152" x2="99.5347" y2="80.1152">
		<stop  offset="0.2" style="stop-color:#04ADAC"/>
		<stop  offset="0.5074" style="stop-color:#EB674A"/>
		<stop  offset="0.8" style="stop-color:#04ADAC"/>
	</linearGradient>
	<path fill="url(#SVGID_2_)" d="M8.332,80.139c-0.024-0.018-0.047-0.03-0.071-0.048C8.261,80.091,8.283,80.11,8.332,80.139z"/>
	<path fill="#58C4C4" d="M11.432,79.921c-0.078,0.026-0.155,0.051-0.229,0.073C11.284,79.969,11.359,79.945,11.432,79.921z"/>
	<linearGradient id="SVGID_3_" gradientUnits="userSpaceOnUse" x1="8.2607" y1="79.957" x2="99.5347" y2="79.957">
		<stop  offset="0.2" style="stop-color:#04ADAC"/>
		<stop  offset="0.5074" style="stop-color:#EB674A"/>
		<stop  offset="0.8" style="stop-color:#04ADAC"/>
	</linearGradient>
	<path fill="url(#SVGID_3_)" d="M11.432,79.921c-0.078,0.026-0.155,0.051-0.229,0.073C11.284,79.969,11.359,79.945,11.432,79.921z"
		/>
	<path fill="#58C4C4" d="M11.922,79.752v-0.005c-0.063,0.023-0.13,0.051-0.191,0.073C11.849,79.778,11.922,79.752,11.922,79.752z"/>
	<linearGradient id="SVGID_4_" gradientUnits="userSpaceOnUse" x1="8.2607" y1="79.7832" x2="99.5347" y2="79.7832">
		<stop  offset="0.2" style="stop-color:#04ADAC"/>
		<stop  offset="0.5074" style="stop-color:#EB674A"/>
		<stop  offset="0.8" style="stop-color:#04ADAC"/>
	</linearGradient>
	<path fill="url(#SVGID_4_)" d="M11.922,79.752v-0.005c-0.063,0.023-0.13,0.051-0.191,0.073
		C11.849,79.778,11.922,79.752,11.922,79.752z"/>
	<path fill="#58C4C4" d="M10.949,80.07c-0.286,0.08-0.54,0.137-0.772,0.177c0.005-0.001,0.009,0.002,0.014,0.001
		C10.409,80.217,10.683,80.148,10.949,80.07z"/>
	<linearGradient id="SVGID_5_" gradientUnits="userSpaceOnUse" x1="8.2607" y1="80.1592" x2="99.5346" y2="80.1592">
		<stop  offset="0.2" style="stop-color:#04ADAC"/>
		<stop  offset="0.5074" style="stop-color:#EB674A"/>
		<stop  offset="0.8" style="stop-color:#04ADAC"/>
	</linearGradient>
	<path fill="url(#SVGID_5_)" d="M10.949,80.07c-0.286,0.08-0.54,0.137-0.772,0.177c0.005-0.001,0.009,0.002,0.014,0.001
		C10.409,80.217,10.683,80.148,10.949,80.07z"/>
	<polygon fill="#58C4C4" points="17.626,76.791 17.626,76.791 17.614,76.797 	"/>
	<linearGradient id="SVGID_6_" gradientUnits="userSpaceOnUse" x1="8.2607" y1="76.7939" x2="99.5347" y2="76.7939">
		<stop  offset="0.2" style="stop-color:#04ADAC"/>
		<stop  offset="0.5074" style="stop-color:#EB674A"/>
		<stop  offset="0.8" style="stop-color:#04ADAC"/>
	</linearGradient>
	<polygon fill="url(#SVGID_6_)" points="17.626,76.791 17.626,76.791 17.614,76.797 	"/>
	<path fill="#58C4C4" d="M23.412,73.488c-0.27,0.154-0.533,0.305-0.796,0.455L23.412,73.488L23.412,73.488z"/>
	<linearGradient id="SVGID_7_" gradientUnits="userSpaceOnUse" x1="8.2607" y1="73.7158" x2="99.5347" y2="73.7158">
		<stop  offset="0.2" style="stop-color:#04ADAC"/>
		<stop  offset="0.5074" style="stop-color:#EB674A"/>
		<stop  offset="0.8" style="stop-color:#04ADAC"/>
	</linearGradient>
	<path fill="url(#SVGID_7_)" d="M23.412,73.488c-0.27,0.154-0.533,0.305-0.796,0.455L23.412,73.488L23.412,73.488z"/>
	<linearGradient id="SVGID_8_" gradientUnits="userSpaceOnUse" x1="13.4121" y1="74.9551" x2="94.3833" y2="74.9551">
		<stop  offset="0.2" style="stop-color:#04ADAC"/>
		<stop  offset="0.5074" style="stop-color:#EB674A"/>
		<stop  offset="0.8" style="stop-color:#04ADAC"/>
	</linearGradient>
	<path fill="url(#SVGID_8_)" d="M88.242,82.23c0,0-20.233-11.888-27.53-15.736c-7.56-3.986-13.567,0-13.567,0
		S25.967,78.969,20.501,81.719c-4.747,2.387-7.089,1.072-7.089,1.072c3.015,3.951,8.107,1.792,8.107,1.792
		S40.533,73.924,46.9,70.039c6.333-3.865,12.895-0.551,12.895-0.551s17.697,9.995,23.946,13.723c7.832,4.672,10.643-0.4,10.643-0.4
		C91.358,83.941,88.242,82.23,88.242,82.23z"/>
	<linearGradient id="SVGID_9_" gradientUnits="userSpaceOnUse" x1="19.5005" y1="79.8652" x2="87.9443" y2="79.8652">
		<stop  offset="0.2" style="stop-color:#04ADAC"/>
		<stop  offset="0.5074" style="stop-color:#EB674A"/>
		<stop  offset="0.8" style="stop-color:#04ADAC"/>
	</linearGradient>
	<path fill="url(#SVGID_9_)" d="M79.674,84.318c0,0-12.516-7.064-19.597-11.3c-6.256-3.741-12.222-0.325-12.222-0.325
		s-14.741,8.902-20.207,11.651c-4.747,2.388-8.148,2.2-8.148,2.2c3.911,3.992,9.859,0.406,9.859,0.406s11.828-6.666,18.17-10.592
		c6.845-4.236,12.222-0.244,12.222-0.244s8.131,5.006,15.614,9.563c9.185,5.595,12.579,1.028,12.579,1.028
		C84.522,87.441,79.674,84.318,79.674,84.318z"/>
	<linearGradient id="SVGID_10_" gradientUnits="userSpaceOnUse" x1="25.2451" y1="84.8809" x2="82.2402" y2="84.8809">
		<stop  offset="0.2" style="stop-color:#04ADAC"/>
		<stop  offset="0.5074" style="stop-color:#EB674A"/>
		<stop  offset="0.8" style="stop-color:#04ADAC"/>
	</linearGradient>
	<path fill="url(#SVGID_10_)" d="M75.196,88.547c0,0-9.342-5.479-16.495-9.59c-4.804-2.76-8.89-0.356-8.89-0.356
		S37.8,85.715,32.334,88.463c-4.747,2.387-7.089,1.422-7.089,1.422c3.911,3.993,8.337,1.443,8.337,1.443s10.06-5.96,16.576-9.592
		c4.094-2.281,7.76,0.191,7.76,0.191s7.325,4.266,14.814,8.812c5.841,3.545,9.508-0.937,9.508-0.937
		C78.737,90.904,75.196,88.547,75.196,88.547z"/>
	<linearGradient id="SVGID_11_" gradientUnits="userSpaceOnUse" x1="54.8755" y1="41.4678" x2="104.8027" y2="41.4678">
		<stop  offset="0" style="stop-color:#59C4C3"/>
		<stop  offset="1" style="stop-color:#004B4B"/>
	</linearGradient>
	<path fill="url(#SVGID_11_)" d="M97.591,22.981c0,0-23.072-13.562-30.963-18.006c-8.606-4.849-11.753,1.201-11.753,1.201
		s0.043-0.07,0.197-0.12c3.186-2.011,5.934-0.593,5.934-0.593s25.549,14.3,33.957,19.413c7.537,4.583,6.825,10.857,6.825,10.857
		s0,35.567,0,39.029c0,3.463-2.253,5.08-2.253,5.08c5.013-2.065,4.912-5.376,4.912-5.376s0.355-29.301,0.356-39.263
		C104.804,26.934,97.591,22.981,97.591,22.981z"/>
	<linearGradient id="SVGID_12_" gradientUnits="userSpaceOnUse" x1="54.1421" y1="43.0039" x2="98.6914" y2="43.0039">
		<stop  offset="0" style="stop-color:#59C4C3"/>
		<stop  offset="1" style="stop-color:#004B4B"/>
	</linearGradient>
	<path fill="url(#SVGID_12_)" d="M98.691,77.92c0,0-0.001-29.699,0-39.661c0.001-8.27-7.211-12.222-7.211-12.222
		S68.419,12.455,60.518,8.03c-3.733-2.09-5.021-2.111-5.445-1.974c-0.066,0.042-0.131,0.076-0.197,0.12
		c-0.222,0.31-0.389,0.863-0.733,2.017c1.726,0.978,3.334,1.773,3.334,1.773s22.969,12.852,31.376,17.965
		c7.537,4.583,6.824,10.857,6.824,10.857s-0.345,35.584,0,39.029c0.082,0.812-0.17,1.598-0.245,1.84
		c0.687,0.174,1.483,0.316,2.306,0.342C98.691,78.855,98.691,77.92,98.691,77.92z"/>
	<linearGradient id="SVGID_13_" gradientUnits="userSpaceOnUse" x1="8.2607" y1="79.8311" x2="99.5346" y2="79.8311">
		<stop  offset="0.2" style="stop-color:#04ADAC"/>
		<stop  offset="0.5074" style="stop-color:#EB674A"/>
		<stop  offset="0.8" style="stop-color:#04ADAC"/>
	</linearGradient>
	<path fill="url(#SVGID_13_)" d="M97.735,80.004c0.001-0.002,0.001-0.002,0.002-0.004c-0.822-0.025-1.619-0.168-2.306-0.342l0,0.001
		C95.57,79.749,96.958,80.006,97.735,80.004z"/>
	<linearGradient id="SVGID_14_" gradientUnits="userSpaceOnUse" x1="54.1421" y1="79.8311" x2="98.6914" y2="79.8311">
		<stop  offset="0" style="stop-color:#59C4C3"/>
		<stop  offset="1" style="stop-color:#004B4B"/>
	</linearGradient>
	<path fill="url(#SVGID_14_)" d="M97.735,80.004c0.001-0.002,0.001-0.002,0.002-0.004c-0.822-0.025-1.619-0.168-2.306-0.342l0,0.001
		C95.57,79.749,96.958,80.006,97.735,80.004z"/>
	<linearGradient id="SVGID_15_" gradientUnits="userSpaceOnUse" x1="54.8755" y1="6.1162" x2="104.8027" y2="6.1162">
		<stop  offset="0" style="stop-color:#59C4C3"/>
		<stop  offset="1" style="stop-color:#004B4B"/>
	</linearGradient>
	<path fill="url(#SVGID_15_)" d="M54.875,6.176c0.066-0.044,0.131-0.079,0.197-0.12C54.918,6.106,54.875,6.176,54.875,6.176z"/>
	<linearGradient id="SVGID_16_" gradientUnits="userSpaceOnUse" x1="54.1421" y1="6.1162" x2="98.6914" y2="6.1162">
		<stop  offset="0" style="stop-color:#59C4C3"/>
		<stop  offset="1" style="stop-color:#004B4B"/>
	</linearGradient>
	<path fill="url(#SVGID_16_)" d="M54.875,6.176c0.066-0.044,0.131-0.079,0.197-0.12C54.918,6.106,54.875,6.176,54.875,6.176z"/>
	<linearGradient id="SVGID_17_" gradientUnits="userSpaceOnUse" x1="53.8823" y1="44.9946" x2="92.7432" y2="44.9946">
		<stop  offset="0" style="stop-color:#59C4C3"/>
		<stop  offset="1" style="stop-color:#004B4B"/>
	</linearGradient>
	<path fill="url(#SVGID_17_)" d="M56.882,16.284c0,0,17.614,9.845,26.022,14.958c7.537,4.583,6.824,10.857,6.824,10.857
		s-0.154,30.545-0.124,34.562c1.403,0.87,3.139,1.922,3.139,1.922s-0.001-27.052,0-37.014c0.001-8.27-7.21-12.222-7.21-12.222
		s-18.125-10.77-26.027-15.194c-5.092-2.853-5.624-2.746-5.624-2.746c0,1.706,0,1.706,0.003,3.121
		C55.067,15.058,56.882,16.284,56.882,16.284z"/>
	<linearGradient id="SVGID_18_" gradientUnits="userSpaceOnUse" x1="53.8823" y1="46.5" x2="87.0396" y2="46.5">
		<stop  offset="0" style="stop-color:#59C4C3"/>
		<stop  offset="1" style="stop-color:#004B4B"/>
	</linearGradient>
	<path fill="url(#SVGID_18_)" d="M84.025,45.848c0,0,0.248,24.02,0.001,27.426c1.403,0.869,3.013,1.826,3.013,1.826
		s-0.001-19.82,0.001-29.782c0.001-8.271-7.211-12.222-7.211-12.222S61.784,22.325,53.882,17.901c0,1.583,0,3.648,0,3.648
		s14.911,8.327,23.318,13.44C84.737,39.573,84.025,45.848,84.025,45.848z"/>
</g>
</svg>
