<?xml version="1.0" encoding="utf-8"?>
<!-- Generator: Adobe Illustrator 19.0.0, SVG Export Plug-In . SVG Version: 6.00 Build 0)  -->
<svg version="1.1" id="Layer_1" xmlns="http://www.w3.org/2000/svg" xmlns:xlink="http://www.w3.org/1999/xlink" x="0px" y="0px"
	 viewBox="0 0 542 542" style="enable-background:new 0 0 542 542;" xml:space="preserve">
<style type="text/css">
	.st0{fill:#E6E7E8;}
	.st1{fill:#008184;}
	.st2{opacity:0.8;fill:#008184;}
</style>
<path id="bkg" class="st0" d="M530,542H12c-6.6,0-12-5.4-12-12V12C0,5.4,5.4,0,12,0h518c6.6,0,12,5.4,12,12v518
	C542,536.6,536.6,542,530,542z"/>
<g id="calendar">
	<path id="top" class="st1" d="M271,64h196.1c1.7,0,3.4,0.6,4.8,1.7l3.2,2.3c1.4,1,2.5,2.4,3.1,4c0.5,1.3,0.8,2.8,0.8,4.3v154.1
		c0,3-1.4,5.8-3.8,7.5l-36.4,26.7c0,0-2,1.3-2.7,2c0,0,0,0,0,0c-1.9,1.6-2.9,3.1-3,4.6h-67.2l-94.9,0.3l-94.9-0.3h-67.2
		c-0.1-1.5-1.1-3-3-4.6c0,0,0,0,0,0c-0.7-0.6-2.7-2-2.7-2l-36.4-26.7c-2.3-1.7-3.8-4.5-3.8-7.5V76.3c0-1.5,0.3-3,0.8-4.3
		c0.6-1.6,1.7-3,3.1-4l3.2-2.3c1.4-1,3.1-1.7,4.8-1.7H271z"/>
	<path id="bottom" class="st2" d="M74.9,478c-1.7,0-3.4-0.6-4.8-1.7l-3.2-2.3c-1.4-1-2.5-2.4-3.1-4c-0.5-1.3-0.8-2.8-0.8-4.3V311.6
		c0-3,1.4-5.8,3.8-7.5l36.4-26.7c0,0,2-1.3,2.7-2c0,0,0,0,0,0c1.9-1.6,2.8-3.1,3-4.6h67.2l94.9-0.3l94.9,0.3h67.2
		c0.1,1.5,1.1,3,3,4.6c0,0,0,0,0,0c0.7,0.6,2.7,2,2.7,2l36.4,26.7c2.4,1.7,3.8,4.5,3.8,7.5v154.1c0,1.5-0.3,3-0.8,4.3
		c-0.6,1.6-1.7,3-3.1,4l-3.2,2.3c-1.4,1-3.1,1.7-4.8,1.7H271H74.9z"/>
</g>
</svg>
